<?xml version="1.0" encoding="utf-8" standalone="no"?>
<!DOCTYPE svg PUBLIC "-//W3C//DTD SVG 1.1//EN"
  "http://www.w3.org/Graphics/SVG/1.1/DTD/svg11.dtd">
<svg xmlns:xlink="http://www.w3.org/1999/xlink" width="995.1075pt" height="344.825625pt" viewBox="0 0 995.1075 344.825625" xmlns="http://www.w3.org/2000/svg" version="1.1">
 <metadata>
  <rdf:RDF xmlns:dc="http://purl.org/dc/elements/1.1/" xmlns:cc="http://creativecommons.org/ns#" xmlns:rdf="http://www.w3.org/1999/02/22-rdf-syntax-ns#">
   <cc:Work>
    <dc:type rdf:resource="http://purl.org/dc/dcmitype/StillImage"/>
    <dc:date>2026-05-01T14:04:46.448626</dc:date>
    <dc:format>image/svg+xml</dc:format>
    <dc:creator>
     <cc:Agent>
      <dc:title>Matplotlib v3.10.8, https://matplotlib.org/</dc:title>
     </cc:Agent>
    </dc:creator>
   </cc:Work>
  </rdf:RDF>
 </metadata>
 <defs>
  <style type="text/css">*{stroke-linejoin: round; stroke-linecap: butt}</style>
 </defs>
 <g id="figure_1">
  <g id="patch_1">
   <path d="M 0 344.825625 
L 995.1075 344.825625 
L 995.1075 0 
L 0 0 
z
" style="fill: #ffffff"/>
  </g>
  <g id="axes_1">
   <g id="patch_2">
    <path d="M 49.1375 303.398125 
L 987.9075 303.398125 
L 987.9075 22.318125 
L 49.1375 22.318125 
z
" style="fill: #ffffff"/>
   </g>
   <g id="PolyCollection_1">
    <defs>
     <path id="m488fcc9188" d="M 91.808864 -278.350594 
L 91.808864 -309.731136 
L 99.22997 -309.731136 
L 99.22997 -278.350594 
z
" style="stroke: #000000; stroke-width: 0.4"/>
    </defs>
    <g clip-path="url(#p3f51bbcbc0)">
     <use xlink:href="#m488fcc9188" x="0" y="344.825625" style="fill: #9467bd; stroke: #000000; stroke-width: 0.4"/>
    </g>
   </g>
   <g id="PolyCollection_2">
    <defs>
     <path id="m048afb0d63" d="M 99.22997 -278.350594 
L 99.22997 -309.731136 
L 121.493291 -309.731136 
L 121.493291 -278.350594 
z
" style="stroke: #000000; stroke-width: 0.4"/>
    </defs>
    <g clip-path="url(#p3f51bbcbc0)">
     <use xlink:href="#m048afb0d63" x="0" y="344.825625" style="fill: #9467bd; stroke: #000000; stroke-width: 0.4"/>
    </g>
   </g>
   <g id="PolyCollection_3">
    <defs>
     <path id="m009e18761b" d="M 110.36163 -143.862556 
L 110.36163 -175.243098 
L 125.203844 -175.243098 
L 125.203844 -143.862556 
z
" style="stroke: #000000; stroke-width: 0.4"/>
    </defs>
    <g clip-path="url(#p3f51bbcbc0)">
     <use xlink:href="#m009e18761b" x="0" y="344.825625" style="fill: #1f77b4; stroke: #000000; stroke-width: 0.4"/>
    </g>
   </g>
   <g id="PolyCollection_4">
    <defs>
     <path id="ma758d6857a" d="M 121.493291 -278.350594 
L 121.493291 -309.731136 
L 140.046057 -309.731136 
L 140.046057 -278.350594 
z
" style="stroke: #000000; stroke-width: 0.4"/>
    </defs>
    <g clip-path="url(#p3f51bbcbc0)">
     <use xlink:href="#ma758d6857a" x="0" y="344.825625" style="fill: #9467bd; stroke: #000000; stroke-width: 0.4"/>
    </g>
   </g>
   <g id="PolyCollection_5">
    <defs>
     <path id="m82bdccd474" d="M 128.914397 -143.862556 
L 128.914397 -175.243098 
L 143.756611 -175.243098 
L 143.756611 -143.862556 
z
" style="stroke: #000000; stroke-width: 0.4"/>
    </defs>
    <g clip-path="url(#p3f51bbcbc0)">
     <use xlink:href="#m82bdccd474" x="0" y="344.825625" style="fill: #aec7e8; stroke: #000000; stroke-width: 0.4"/>
    </g>
   </g>
   <g id="PolyCollection_6">
    <defs>
     <path id="md8f13eb88c" d="M 143.756611 -143.862556 
L 143.756611 -175.243098 
L 158.598824 -175.243098 
L 158.598824 -143.862556 
z
" style="stroke: #000000; stroke-width: 0.4"/>
    </defs>
    <g clip-path="url(#p3f51bbcbc0)">
     <use xlink:href="#md8f13eb88c" x="0" y="344.825625" style="fill: #aec7e8; stroke: #000000; stroke-width: 0.4"/>
    </g>
   </g>
   <g id="PolyCollection_7">
    <defs>
     <path id="mb7f2351cc3" d="M 158.598824 -143.862556 
L 158.598824 -175.243098 
L 177.151591 -175.243098 
L 177.151591 -143.862556 
z
" style="stroke: #000000; stroke-width: 0.4"/>
    </defs>
    <g clip-path="url(#p3f51bbcbc0)">
     <use xlink:href="#mb7f2351cc3" x="0" y="344.825625" style="fill: #1f77b4; stroke: #000000; stroke-width: 0.4"/>
    </g>
   </g>
   <g id="PolyCollection_8">
    <defs>
     <path id="m25b562d34a" d="M 177.151591 -143.862556 
L 177.151591 -175.243098 
L 191.993804 -175.243098 
L 191.993804 -143.862556 
z
" style="stroke: #000000; stroke-width: 0.4"/>
    </defs>
    <g clip-path="url(#p3f51bbcbc0)">
     <use xlink:href="#m25b562d34a" x="0" y="344.825625" style="fill: #1f77b4; stroke: #000000; stroke-width: 0.4"/>
    </g>
   </g>
   <g id="PolyCollection_9">
    <defs>
     <path id="m7bf3e4397f" d="M 191.993804 -143.862556 
L 191.993804 -175.243098 
L 210.546571 -175.243098 
L 210.546571 -143.862556 
z
" style="stroke: #000000; stroke-width: 0.4"/>
    </defs>
    <g clip-path="url(#p3f51bbcbc0)">
     <use xlink:href="#m7bf3e4397f" x="0" y="344.825625" style="fill: #aec7e8; stroke: #000000; stroke-width: 0.4"/>
    </g>
   </g>
   <g id="PolyCollection_10">
    <defs>
     <path id="m3f48d7d2a9" d="M 210.546571 -99.03321 
L 210.546571 -130.413752 
L 232.809891 -130.413752 
L 232.809891 -99.03321 
z
" style="stroke: #000000; stroke-width: 0.4"/>
    </defs>
    <g clip-path="url(#p3f51bbcbc0)">
     <use xlink:href="#m3f48d7d2a9" x="0" y="344.825625" style="fill: #1f77b4; stroke: #000000; stroke-width: 0.4"/>
    </g>
   </g>
   <g id="PolyCollection_11">
    <defs>
     <path id="m8cced87074" d="M 262.494318 -143.862556 
L 262.494318 -175.243098 
L 281.047085 -175.243098 
L 281.047085 -143.862556 
z
" style="stroke: #000000; stroke-width: 0.4"/>
    </defs>
    <g clip-path="url(#p3f51bbcbc0)">
     <use xlink:href="#m8cced87074" x="0" y="344.825625" style="fill: #98df8a; stroke: #000000; stroke-width: 0.4"/>
    </g>
   </g>
   <g id="PolyCollection_12">
    <defs>
     <path id="mbbac2c8766" d="M 292.178745 -278.350594 
L 292.178745 -309.731136 
L 295.889298 -309.731136 
L 295.889298 -278.350594 
z
" style="stroke: #000000; stroke-width: 0.4"/>
    </defs>
    <g clip-path="url(#p3f51bbcbc0)">
     <use xlink:href="#mbbac2c8766" x="0" y="344.825625" style="fill: #c5b0d5; stroke: #000000; stroke-width: 0.4"/>
    </g>
   </g>
   <g id="PolyCollection_13">
    <defs>
     <path id="m3e5a7a9c6e" d="M 295.889298 -278.350594 
L 295.889298 -309.731136 
L 299.599852 -309.731136 
L 299.599852 -278.350594 
z
" style="stroke: #000000; stroke-width: 0.4"/>
    </defs>
    <g clip-path="url(#p3f51bbcbc0)">
     <use xlink:href="#m3e5a7a9c6e" x="0" y="344.825625" style="fill: #ff9896; stroke: #000000; stroke-width: 0.4"/>
    </g>
   </g>
   <g id="PolyCollection_14">
    <defs>
     <path id="m59d6639865" d="M 336.705385 -99.03321 
L 336.705385 -130.413752 
L 358.968706 -130.413752 
L 358.968706 -99.03321 
z
" style="stroke: #000000; stroke-width: 0.4"/>
    </defs>
    <g clip-path="url(#p3f51bbcbc0)">
     <use xlink:href="#m59d6639865" x="0" y="344.825625" style="fill: #ff7f0e; stroke: #000000; stroke-width: 0.4"/>
    </g>
   </g>
   <g id="PolyCollection_15">
    <defs>
     <path id="m6ae2bfc9d2" d="M 351.547599 -233.521248 
L 351.547599 -264.90179 
L 370.100366 -264.90179 
L 370.100366 -233.521248 
z
" style="stroke: #000000; stroke-width: 0.4"/>
    </defs>
    <g clip-path="url(#p3f51bbcbc0)">
     <use xlink:href="#m6ae2bfc9d2" x="0" y="344.825625" style="fill: #c5b0d5; stroke: #000000; stroke-width: 0.4"/>
    </g>
   </g>
   <g id="PolyCollection_16">
    <defs>
     <path id="m7f3a2709b2" d="M 388.653132 -143.862556 
L 388.653132 -175.243098 
L 392.363686 -175.243098 
L 392.363686 -143.862556 
z
" style="stroke: #000000; stroke-width: 0.4"/>
    </defs>
    <g clip-path="url(#p3f51bbcbc0)">
     <use xlink:href="#m7f3a2709b2" x="0" y="344.825625" style="fill: #ff7f0e; stroke: #000000; stroke-width: 0.4"/>
    </g>
   </g>
   <g id="PolyCollection_17">
    <defs>
     <path id="me32175e365" d="M 418.337559 -188.691902 
L 418.337559 -220.072444 
L 429.469219 -220.072444 
L 429.469219 -188.691902 
z
" style="stroke: #000000; stroke-width: 0.4"/>
    </defs>
    <g clip-path="url(#p3f51bbcbc0)">
     <use xlink:href="#me32175e365" x="0" y="344.825625" style="fill: #c5b0d5; stroke: #000000; stroke-width: 0.4"/>
    </g>
   </g>
   <g id="PolyCollection_18">
    <defs>
     <path id="m9a31758bac" d="M 436.890326 -99.03321 
L 436.890326 -130.413752 
L 459.153646 -130.413752 
L 459.153646 -99.03321 
z
" style="stroke: #000000; stroke-width: 0.4"/>
    </defs>
    <g clip-path="url(#p3f51bbcbc0)">
     <use xlink:href="#m9a31758bac" x="0" y="344.825625" style="fill: #2ca02c; stroke: #000000; stroke-width: 0.4"/>
    </g>
   </g>
   <g id="PolyCollection_19">
    <defs>
     <path id="mc15a7aa5f5" d="M 473.99586 -278.350594 
L 473.99586 -309.731136 
L 477.706413 -309.731136 
L 477.706413 -278.350594 
z
" style="stroke: #000000; stroke-width: 0.4"/>
    </defs>
    <g clip-path="url(#p3f51bbcbc0)">
     <use xlink:href="#mc15a7aa5f5" x="0" y="344.825625" style="fill: #aec7e8; stroke: #000000; stroke-width: 0.4"/>
    </g>
   </g>
   <g id="PolyCollection_20">
    <defs>
     <path id="m490da74063" d="M 459.153646 -99.03321 
L 459.153646 -130.413752 
L 481.416966 -130.413752 
L 481.416966 -99.03321 
z
" style="stroke: #000000; stroke-width: 0.4"/>
    </defs>
    <g clip-path="url(#p3f51bbcbc0)">
     <use xlink:href="#m490da74063" x="0" y="344.825625" style="fill: #2ca02c; stroke: #000000; stroke-width: 0.4"/>
    </g>
   </g>
   <g id="PolyCollection_21">
    <defs>
     <path id="m806f117e28" d="M 481.416966 -99.03321 
L 481.416966 -130.413752 
L 503.680287 -130.413752 
L 503.680287 -99.03321 
z
" style="stroke: #000000; stroke-width: 0.4"/>
    </defs>
    <g clip-path="url(#p3f51bbcbc0)">
     <use xlink:href="#m806f117e28" x="0" y="344.825625" style="fill: #98df8a; stroke: #000000; stroke-width: 0.4"/>
    </g>
   </g>
   <g id="PolyCollection_22">
    <defs>
     <path id="m66aa877bb7" d="M 507.39084 -54.203864 
L 507.39084 -85.584406 
L 514.811947 -85.584406 
L 514.811947 -54.203864 
z
" style="stroke: #000000; stroke-width: 0.4"/>
    </defs>
    <g clip-path="url(#p3f51bbcbc0)">
     <use xlink:href="#m66aa877bb7" x="0" y="344.825625" style="fill: #ff7f0e; stroke: #000000; stroke-width: 0.4"/>
    </g>
   </g>
   <g id="PolyCollection_23">
    <defs>
     <path id="m98f52c87a2" d="M 548.206927 -99.03321 
L 548.206927 -130.413752 
L 570.470247 -130.413752 
L 570.470247 -99.03321 
z
" style="stroke: #000000; stroke-width: 0.4"/>
    </defs>
    <g clip-path="url(#p3f51bbcbc0)">
     <use xlink:href="#m98f52c87a2" x="0" y="344.825625" style="fill: #ff7f0e; stroke: #000000; stroke-width: 0.4"/>
    </g>
   </g>
   <g id="PolyCollection_24">
    <defs>
     <path id="m065974744a" d="M 570.470247 -99.03321 
L 570.470247 -130.413752 
L 592.733567 -130.413752 
L 592.733567 -99.03321 
z
" style="stroke: #000000; stroke-width: 0.4"/>
    </defs>
    <g clip-path="url(#p3f51bbcbc0)">
     <use xlink:href="#m065974744a" x="0" y="344.825625" style="fill: #98df8a; stroke: #000000; stroke-width: 0.4"/>
    </g>
   </g>
   <g id="PolyCollection_25">
    <defs>
     <path id="m9fb8c69132" d="M 592.733567 -99.03321 
L 592.733567 -130.413752 
L 614.996887 -130.413752 
L 614.996887 -99.03321 
z
" style="stroke: #000000; stroke-width: 0.4"/>
    </defs>
    <g clip-path="url(#p3f51bbcbc0)">
     <use xlink:href="#m9fb8c69132" x="0" y="344.825625" style="fill: #ffbb78; stroke: #000000; stroke-width: 0.4"/>
    </g>
   </g>
   <g id="PolyCollection_26">
    <defs>
     <path id="m90174706a1" d="M 611.286334 -188.691902 
L 611.286334 -220.072444 
L 618.707441 -220.072444 
L 618.707441 -188.691902 
z
" style="stroke: #000000; stroke-width: 0.4"/>
    </defs>
    <g clip-path="url(#p3f51bbcbc0)">
     <use xlink:href="#m90174706a1" x="0" y="344.825625" style="fill: #ff9896; stroke: #000000; stroke-width: 0.4"/>
    </g>
   </g>
   <g id="PolyCollection_27">
    <defs>
     <path id="m8845f6510d" d="M 629.839101 -143.862556 
L 629.839101 -175.243098 
L 644.681314 -175.243098 
L 644.681314 -143.862556 
z
" style="stroke: #000000; stroke-width: 0.4"/>
    </defs>
    <g clip-path="url(#p3f51bbcbc0)">
     <use xlink:href="#m8845f6510d" x="0" y="344.825625" style="fill: #98df8a; stroke: #000000; stroke-width: 0.4"/>
    </g>
   </g>
   <g id="PolyCollection_28">
    <defs>
     <path id="mbc2412ed52" d="M 644.681314 -143.862556 
L 644.681314 -175.243098 
L 659.523528 -175.243098 
L 659.523528 -143.862556 
z
" style="stroke: #000000; stroke-width: 0.4"/>
    </defs>
    <g clip-path="url(#p3f51bbcbc0)">
     <use xlink:href="#mbc2412ed52" x="0" y="344.825625" style="fill: #d62728; stroke: #000000; stroke-width: 0.4"/>
    </g>
   </g>
   <g id="PolyCollection_29">
    <defs>
     <path id="m72786425c1" d="M 659.523528 -143.862556 
L 659.523528 -175.243098 
L 674.365741 -175.243098 
L 674.365741 -143.862556 
z
" style="stroke: #000000; stroke-width: 0.4"/>
    </defs>
    <g clip-path="url(#p3f51bbcbc0)">
     <use xlink:href="#m72786425c1" x="0" y="344.825625" style="fill: #ffbb78; stroke: #000000; stroke-width: 0.4"/>
    </g>
   </g>
   <g id="PolyCollection_30">
    <defs>
     <path id="m0f8d6ecce8" d="M 655.812974 -99.03321 
L 655.812974 -130.413752 
L 678.076294 -130.413752 
L 678.076294 -99.03321 
z
" style="stroke: #000000; stroke-width: 0.4"/>
    </defs>
    <g clip-path="url(#p3f51bbcbc0)">
     <use xlink:href="#m0f8d6ecce8" x="0" y="344.825625" style="fill: #ff7f0e; stroke: #000000; stroke-width: 0.4"/>
    </g>
   </g>
   <g id="PolyCollection_31">
    <defs>
     <path id="mafa3a8a375" d="M 678.076294 -99.03321 
L 678.076294 -130.413752 
L 700.339615 -130.413752 
L 700.339615 -99.03321 
z
" style="stroke: #000000; stroke-width: 0.4"/>
    </defs>
    <g clip-path="url(#p3f51bbcbc0)">
     <use xlink:href="#mafa3a8a375" x="0" y="344.825625" style="fill: #98df8a; stroke: #000000; stroke-width: 0.4"/>
    </g>
   </g>
   <g id="PolyCollection_32">
    <defs>
     <path id="me0092d31cd" d="M 700.339615 -54.203864 
L 700.339615 -85.584406 
L 707.760721 -85.584406 
L 707.760721 -54.203864 
z
" style="stroke: #000000; stroke-width: 0.4"/>
    </defs>
    <g clip-path="url(#p3f51bbcbc0)">
     <use xlink:href="#me0092d31cd" x="0" y="344.825625" style="fill: #d62728; stroke: #000000; stroke-width: 0.4"/>
    </g>
   </g>
   <g id="PolyCollection_33">
    <defs>
     <path id="m4a050f2bed" d="M 700.339615 -99.03321 
L 700.339615 -130.413752 
L 722.602935 -130.413752 
L 722.602935 -99.03321 
z
" style="stroke: #000000; stroke-width: 0.4"/>
    </defs>
    <g clip-path="url(#p3f51bbcbc0)">
     <use xlink:href="#m4a050f2bed" x="0" y="344.825625" style="fill: #98df8a; stroke: #000000; stroke-width: 0.4"/>
    </g>
   </g>
   <g id="PolyCollection_34">
    <defs>
     <path id="mc5383a59b1" d="M 722.602935 -99.03321 
L 722.602935 -130.413752 
L 744.866255 -130.413752 
L 744.866255 -99.03321 
z
" style="stroke: #000000; stroke-width: 0.4"/>
    </defs>
    <g clip-path="url(#p3f51bbcbc0)">
     <use xlink:href="#mc5383a59b1" x="0" y="344.825625" style="fill: #ffbb78; stroke: #000000; stroke-width: 0.4"/>
    </g>
   </g>
   <g id="PolyCollection_35">
    <defs>
     <path id="m36cd626cee" d="M 744.866255 -99.03321 
L 744.866255 -130.413752 
L 767.129575 -130.413752 
L 767.129575 -99.03321 
z
" style="stroke: #000000; stroke-width: 0.4"/>
    </defs>
    <g clip-path="url(#p3f51bbcbc0)">
     <use xlink:href="#m36cd626cee" x="0" y="344.825625" style="fill: #ffbb78; stroke: #000000; stroke-width: 0.4"/>
    </g>
   </g>
   <g id="PolyCollection_36">
    <defs>
     <path id="me04f6ce845" d="M 767.129575 -99.03321 
L 767.129575 -130.413752 
L 789.392895 -130.413752 
L 789.392895 -99.03321 
z
" style="stroke: #000000; stroke-width: 0.4"/>
    </defs>
    <g clip-path="url(#p3f51bbcbc0)">
     <use xlink:href="#me04f6ce845" x="0" y="344.825625" style="fill: #d62728; stroke: #000000; stroke-width: 0.4"/>
    </g>
   </g>
   <g id="PolyCollection_37">
    <defs>
     <path id="medb04cd0e8" d="M 789.392895 -99.03321 
L 789.392895 -130.413752 
L 811.656215 -130.413752 
L 811.656215 -99.03321 
z
" style="stroke: #000000; stroke-width: 0.4"/>
    </defs>
    <g clip-path="url(#p3f51bbcbc0)">
     <use xlink:href="#medb04cd0e8" x="0" y="344.825625" style="fill: #d62728; stroke: #000000; stroke-width: 0.4"/>
    </g>
   </g>
   <g id="PolyCollection_38">
    <defs>
     <path id="m7c35846245" d="M 811.656215 -99.03321 
L 811.656215 -130.413752 
L 833.919536 -130.413752 
L 833.919536 -99.03321 
z
" style="stroke: #000000; stroke-width: 0.4"/>
    </defs>
    <g clip-path="url(#p3f51bbcbc0)">
     <use xlink:href="#m7c35846245" x="0" y="344.825625" style="fill: #ff9896; stroke: #000000; stroke-width: 0.4"/>
    </g>
   </g>
   <g id="PolyCollection_39">
    <defs>
     <path id="mdebb3e89a9" d="M 833.919536 -54.203864 
L 833.919536 -85.584406 
L 837.630089 -85.584406 
L 837.630089 -54.203864 
z
" style="stroke: #000000; stroke-width: 0.4"/>
    </defs>
    <g clip-path="url(#p3f51bbcbc0)">
     <use xlink:href="#mdebb3e89a9" x="0" y="344.825625" style="fill: #d62728; stroke: #000000; stroke-width: 0.4"/>
    </g>
   </g>
   <g id="PolyCollection_40">
    <defs>
     <path id="mec551e3010" d="M 837.630089 -54.203864 
L 837.630089 -85.584406 
L 848.761749 -85.584406 
L 848.761749 -54.203864 
z
" style="stroke: #000000; stroke-width: 0.4"/>
    </defs>
    <g clip-path="url(#p3f51bbcbc0)">
     <use xlink:href="#mec551e3010" x="0" y="344.825625" style="fill: #d62728; stroke: #000000; stroke-width: 0.4"/>
    </g>
   </g>
   <g id="PolyCollection_41">
    <defs>
     <path id="mdbc879e042" d="M 833.919536 -99.03321 
L 833.919536 -130.413752 
L 856.182856 -130.413752 
L 856.182856 -99.03321 
z
" style="stroke: #000000; stroke-width: 0.4"/>
    </defs>
    <g clip-path="url(#p3f51bbcbc0)">
     <use xlink:href="#mdbc879e042" x="0" y="344.825625" style="fill: #9467bd; stroke: #000000; stroke-width: 0.4"/>
    </g>
   </g>
   <g id="PolyCollection_42">
    <defs>
     <path id="mcae36eb427" d="M 848.761749 -54.203864 
L 848.761749 -85.584406 
L 856.182856 -85.584406 
L 856.182856 -54.203864 
z
" style="stroke: #000000; stroke-width: 0.4"/>
    </defs>
    <g clip-path="url(#p3f51bbcbc0)">
     <use xlink:href="#mcae36eb427" x="0" y="344.825625" style="fill: #c5b0d5; stroke: #000000; stroke-width: 0.4"/>
    </g>
   </g>
   <g id="PolyCollection_43">
    <defs>
     <path id="m6afdbd5d21" d="M 856.182856 -99.03321 
L 856.182856 -130.413752 
L 878.446176 -130.413752 
L 878.446176 -99.03321 
z
" style="stroke: #000000; stroke-width: 0.4"/>
    </defs>
    <g clip-path="url(#p3f51bbcbc0)">
     <use xlink:href="#m6afdbd5d21" x="0" y="344.825625" style="fill: #ff9896; stroke: #000000; stroke-width: 0.4"/>
    </g>
   </g>
   <g id="PolyCollection_44">
    <defs>
     <path id="m26eb6d5dc6" d="M 878.446176 -143.862556 
L 878.446176 -175.243098 
L 882.156729 -175.243098 
L 882.156729 -143.862556 
z
" style="stroke: #000000; stroke-width: 0.4"/>
    </defs>
    <g clip-path="url(#p3f51bbcbc0)">
     <use xlink:href="#m26eb6d5dc6" x="0" y="344.825625" style="fill: #2ca02c; stroke: #000000; stroke-width: 0.4"/>
    </g>
   </g>
   <g id="PolyCollection_45">
    <defs>
     <path id="mb63b4be60e" d="M 859.893409 -188.691902 
L 859.893409 -220.072444 
L 882.156729 -220.072444 
L 882.156729 -188.691902 
z
" style="stroke: #000000; stroke-width: 0.4"/>
    </defs>
    <g clip-path="url(#p3f51bbcbc0)">
     <use xlink:href="#mb63b4be60e" x="0" y="344.825625" style="fill: #aec7e8; stroke: #000000; stroke-width: 0.4"/>
    </g>
   </g>
   <g id="PolyCollection_46">
    <defs>
     <path id="m4657497b95" d="M 882.156729 -143.862556 
L 882.156729 -175.243098 
L 885.867283 -175.243098 
L 885.867283 -143.862556 
z
" style="stroke: #000000; stroke-width: 0.4"/>
    </defs>
    <g clip-path="url(#p3f51bbcbc0)">
     <use xlink:href="#m4657497b95" x="0" y="344.825625" style="fill: #1f77b4; stroke: #000000; stroke-width: 0.4"/>
    </g>
   </g>
   <g id="PolyCollection_47">
    <defs>
     <path id="mb3607c0bb6" d="M 878.446176 -99.03321 
L 878.446176 -130.413752 
L 900.709496 -130.413752 
L 900.709496 -99.03321 
z
" style="stroke: #000000; stroke-width: 0.4"/>
    </defs>
    <g clip-path="url(#p3f51bbcbc0)">
     <use xlink:href="#mb3607c0bb6" x="0" y="344.825625" style="fill: #9467bd; stroke: #000000; stroke-width: 0.4"/>
    </g>
   </g>
   <g id="PolyCollection_48">
    <defs>
     <path id="m43a43eba8d" d="M 885.867283 -143.862556 
L 885.867283 -175.243098 
L 908.130603 -175.243098 
L 908.130603 -143.862556 
z
" style="stroke: #000000; stroke-width: 0.4"/>
    </defs>
    <g clip-path="url(#p3f51bbcbc0)">
     <use xlink:href="#m43a43eba8d" x="0" y="344.825625" style="fill: #1f77b4; stroke: #000000; stroke-width: 0.4"/>
    </g>
   </g>
   <g id="PolyCollection_49">
    <defs>
     <path id="m1ebd5fd6a3" d="M 900.709496 -99.03321 
L 900.709496 -130.413752 
L 922.972816 -130.413752 
L 922.972816 -99.03321 
z
" style="stroke: #000000; stroke-width: 0.4"/>
    </defs>
    <g clip-path="url(#p3f51bbcbc0)">
     <use xlink:href="#m1ebd5fd6a3" x="0" y="344.825625" style="fill: #c5b0d5; stroke: #000000; stroke-width: 0.4"/>
    </g>
   </g>
   <g id="PolyCollection_50">
    <defs>
     <path id="m701f377422" d="M 908.130603 -143.862556 
L 908.130603 -175.243098 
L 926.68337 -175.243098 
L 926.68337 -143.862556 
z
" style="stroke: #000000; stroke-width: 0.4"/>
    </defs>
    <g clip-path="url(#p3f51bbcbc0)">
     <use xlink:href="#m701f377422" x="0" y="344.825625" style="fill: #2ca02c; stroke: #000000; stroke-width: 0.4"/>
    </g>
   </g>
   <g id="PolyCollection_51">
    <defs>
     <path id="m4a59bbce82" d="M 926.68337 -143.862556 
L 926.68337 -175.243098 
L 941.525583 -175.243098 
L 941.525583 -143.862556 
z
" style="stroke: #000000; stroke-width: 0.4"/>
    </defs>
    <g clip-path="url(#p3f51bbcbc0)">
     <use xlink:href="#m4a59bbce82" x="0" y="344.825625" style="fill: #2ca02c; stroke: #000000; stroke-width: 0.4"/>
    </g>
   </g>
   <g id="PolyCollection_52">
    <defs>
     <path id="mc77b54116e" d="M 941.525583 -54.203864 
L 941.525583 -85.584406 
L 945.236136 -85.584406 
L 945.236136 -54.203864 
z
" style="stroke: #000000; stroke-width: 0.4"/>
    </defs>
    <g clip-path="url(#p3f51bbcbc0)">
     <use xlink:href="#mc77b54116e" x="0" y="344.825625" style="fill: #ffbb78; stroke: #000000; stroke-width: 0.4"/>
    </g>
   </g>
   <g id="PolyCollection_53">
    <defs>
     <path id="m24d660ef2f" d="M 941.525583 -143.862556 
L 941.525583 -175.243098 
L 945.236136 -175.243098 
L 945.236136 -143.862556 
z
" style="stroke: #000000; stroke-width: 0.4"/>
    </defs>
    <g clip-path="url(#p3f51bbcbc0)">
     <use xlink:href="#m24d660ef2f" x="0" y="344.825625" style="fill: #ff9896; stroke: #000000; stroke-width: 0.4"/>
    </g>
   </g>
   <g id="PolyCollection_54">
    <defs>
     <path id="mc6ae11dfbf" d="M 922.972816 -99.03321 
L 922.972816 -130.413752 
L 945.236136 -130.413752 
L 945.236136 -99.03321 
z
" style="stroke: #000000; stroke-width: 0.4"/>
    </defs>
    <g clip-path="url(#p3f51bbcbc0)">
     <use xlink:href="#mc6ae11dfbf" x="0" y="344.825625" style="fill: #c5b0d5; stroke: #000000; stroke-width: 0.4"/>
    </g>
   </g>
   <g id="PolyCollection_55">
    <defs>
     <path id="mdcbd5b2c52" d="M 937.81503 -188.691902 
L 937.81503 -220.072444 
L 945.236136 -220.072444 
L 945.236136 -188.691902 
z
" style="stroke: #000000; stroke-width: 0.4"/>
    </defs>
    <g clip-path="url(#p3f51bbcbc0)">
     <use xlink:href="#mdcbd5b2c52" x="0" y="344.825625" style="fill: #aec7e8; stroke: #000000; stroke-width: 0.4"/>
    </g>
   </g>
   <g id="matplotlib.axis_1">
    <g id="xtick_1">
     <g id="line2d_1">
      <path d="M 65.83499 303.398125 
L 65.83499 22.318125 
" clip-path="url(#p3f51bbcbc0)" style="fill: none; stroke-dasharray: 2.96,1.28; stroke-dashoffset: 0; stroke: #b0b0b0; stroke-opacity: 0.4; stroke-width: 0.8"/>
     </g>
     <g id="line2d_2">
      <defs>
       <path id="m9b7fa7be20" d="M 0 0 
L 0 3.5 
" style="stroke: #000000; stroke-width: 0.8"/>
      </defs>
      <g>
       <use xlink:href="#m9b7fa7be20" x="65.83499" y="303.398125" style="stroke: #000000; stroke-width: 0.8"/>
      </g>
     </g>
     <g id="text_1">
      <!-- 0 -->
      <g transform="translate(62.01749 319.51625) scale(0.12 -0.12)">
       <defs>
        <path id="DejaVuSans-30" d="M 2034 4250 
Q 1547 4250 1301 3770 
Q 1056 3291 1056 2328 
Q 1056 1369 1301 889 
Q 1547 409 2034 409 
Q 2525 409 2770 889 
Q 3016 1369 3016 2328 
Q 3016 3291 2770 3770 
Q 2525 4250 2034 4250 
z
M 2034 4750 
Q 2819 4750 3233 4129 
Q 3647 3509 3647 2328 
Q 3647 1150 3233 529 
Q 2819 -91 2034 -91 
Q 1250 -91 836 529 
Q 422 1150 422 2328 
Q 422 3509 836 4129 
Q 1250 4750 2034 4750 
z
" transform="scale(0.015625)"/>
       </defs>
       <use xlink:href="#DejaVuSans-30"/>
      </g>
     </g>
    </g>
    <g id="xtick_2">
     <g id="line2d_3">
      <path d="M 251.362658 303.398125 
L 251.362658 22.318125 
" clip-path="url(#p3f51bbcbc0)" style="fill: none; stroke-dasharray: 2.96,1.28; stroke-dashoffset: 0; stroke: #b0b0b0; stroke-opacity: 0.4; stroke-width: 0.8"/>
     </g>
     <g id="line2d_4">
      <g>
       <use xlink:href="#m9b7fa7be20" x="251.362658" y="303.398125" style="stroke: #000000; stroke-width: 0.8"/>
      </g>
     </g>
     <g id="text_2">
      <!-- 50 -->
      <g transform="translate(243.727658 319.51625) scale(0.12 -0.12)">
       <defs>
        <path id="DejaVuSans-35" d="M 691 4666 
L 3169 4666 
L 3169 4134 
L 1269 4134 
L 1269 2991 
Q 1406 3038 1543 3061 
Q 1681 3084 1819 3084 
Q 2600 3084 3056 2656 
Q 3513 2228 3513 1497 
Q 3513 744 3044 326 
Q 2575 -91 1722 -91 
Q 1428 -91 1123 -41 
Q 819 9 494 109 
L 494 744 
Q 775 591 1075 516 
Q 1375 441 1709 441 
Q 2250 441 2565 725 
Q 2881 1009 2881 1497 
Q 2881 1984 2565 2268 
Q 2250 2553 1709 2553 
Q 1456 2553 1204 2497 
Q 953 2441 691 2322 
L 691 4666 
z
" transform="scale(0.015625)"/>
       </defs>
       <use xlink:href="#DejaVuSans-35"/>
       <use xlink:href="#DejaVuSans-30" transform="translate(63.623047 0)"/>
      </g>
     </g>
    </g>
    <g id="xtick_3">
     <g id="line2d_5">
      <path d="M 436.890326 303.398125 
L 436.890326 22.318125 
" clip-path="url(#p3f51bbcbc0)" style="fill: none; stroke-dasharray: 2.96,1.28; stroke-dashoffset: 0; stroke: #b0b0b0; stroke-opacity: 0.4; stroke-width: 0.8"/>
     </g>
     <g id="line2d_6">
      <g>
       <use xlink:href="#m9b7fa7be20" x="436.890326" y="303.398125" style="stroke: #000000; stroke-width: 0.8"/>
      </g>
     </g>
     <g id="text_3">
      <!-- 100 -->
      <g transform="translate(425.437826 319.51625) scale(0.12 -0.12)">
       <defs>
        <path id="DejaVuSans-31" d="M 794 531 
L 1825 531 
L 1825 4091 
L 703 3866 
L 703 4441 
L 1819 4666 
L 2450 4666 
L 2450 531 
L 3481 531 
L 3481 0 
L 794 0 
L 794 531 
z
" transform="scale(0.015625)"/>
       </defs>
       <use xlink:href="#DejaVuSans-31"/>
       <use xlink:href="#DejaVuSans-30" transform="translate(63.623047 0)"/>
       <use xlink:href="#DejaVuSans-30" transform="translate(127.246094 0)"/>
      </g>
     </g>
    </g>
    <g id="xtick_4">
     <g id="line2d_7">
      <path d="M 622.417994 303.398125 
L 622.417994 22.318125 
" clip-path="url(#p3f51bbcbc0)" style="fill: none; stroke-dasharray: 2.96,1.28; stroke-dashoffset: 0; stroke: #b0b0b0; stroke-opacity: 0.4; stroke-width: 0.8"/>
     </g>
     <g id="line2d_8">
      <g>
       <use xlink:href="#m9b7fa7be20" x="622.417994" y="303.398125" style="stroke: #000000; stroke-width: 0.8"/>
      </g>
     </g>
     <g id="text_4">
      <!-- 150 -->
      <g transform="translate(610.965494 319.51625) scale(0.12 -0.12)">
       <use xlink:href="#DejaVuSans-31"/>
       <use xlink:href="#DejaVuSans-35" transform="translate(63.623047 0)"/>
       <use xlink:href="#DejaVuSans-30" transform="translate(127.246094 0)"/>
      </g>
     </g>
    </g>
    <g id="xtick_5">
     <g id="line2d_9">
      <path d="M 807.945662 303.398125 
L 807.945662 22.318125 
" clip-path="url(#p3f51bbcbc0)" style="fill: none; stroke-dasharray: 2.96,1.28; stroke-dashoffset: 0; stroke: #b0b0b0; stroke-opacity: 0.4; stroke-width: 0.8"/>
     </g>
     <g id="line2d_10">
      <g>
       <use xlink:href="#m9b7fa7be20" x="807.945662" y="303.398125" style="stroke: #000000; stroke-width: 0.8"/>
      </g>
     </g>
     <g id="text_5">
      <!-- 200 -->
      <g transform="translate(796.493162 319.51625) scale(0.12 -0.12)">
       <defs>
        <path id="DejaVuSans-32" d="M 1228 531 
L 3431 531 
L 3431 0 
L 469 0 
L 469 531 
Q 828 903 1448 1529 
Q 2069 2156 2228 2338 
Q 2531 2678 2651 2914 
Q 2772 3150 2772 3378 
Q 2772 3750 2511 3984 
Q 2250 4219 1831 4219 
Q 1534 4219 1204 4116 
Q 875 4013 500 3803 
L 500 4441 
Q 881 4594 1212 4672 
Q 1544 4750 1819 4750 
Q 2544 4750 2975 4387 
Q 3406 4025 3406 3419 
Q 3406 3131 3298 2873 
Q 3191 2616 2906 2266 
Q 2828 2175 2409 1742 
Q 1991 1309 1228 531 
z
" transform="scale(0.015625)"/>
       </defs>
       <use xlink:href="#DejaVuSans-32"/>
       <use xlink:href="#DejaVuSans-30" transform="translate(63.623047 0)"/>
       <use xlink:href="#DejaVuSans-30" transform="translate(127.246094 0)"/>
      </g>
     </g>
    </g>
    <g id="text_6">
     <!-- Time -->
     <g transform="translate(503.842187 335.13) scale(0.12 -0.12)">
      <defs>
       <path id="DejaVuSans-54" d="M -19 4666 
L 3928 4666 
L 3928 4134 
L 2272 4134 
L 2272 0 
L 1638 0 
L 1638 4134 
L -19 4134 
L -19 4666 
z
" transform="scale(0.015625)"/>
       <path id="DejaVuSans-69" d="M 603 3500 
L 1178 3500 
L 1178 0 
L 603 0 
L 603 3500 
z
M 603 4863 
L 1178 4863 
L 1178 4134 
L 603 4134 
L 603 4863 
z
" transform="scale(0.015625)"/>
       <path id="DejaVuSans-6d" d="M 3328 2828 
Q 3544 3216 3844 3400 
Q 4144 3584 4550 3584 
Q 5097 3584 5394 3201 
Q 5691 2819 5691 2113 
L 5691 0 
L 5113 0 
L 5113 2094 
Q 5113 2597 4934 2840 
Q 4756 3084 4391 3084 
Q 3944 3084 3684 2787 
Q 3425 2491 3425 1978 
L 3425 0 
L 2847 0 
L 2847 2094 
Q 2847 2600 2669 2842 
Q 2491 3084 2119 3084 
Q 1678 3084 1418 2786 
Q 1159 2488 1159 1978 
L 1159 0 
L 581 0 
L 581 3500 
L 1159 3500 
L 1159 2956 
Q 1356 3278 1631 3431 
Q 1906 3584 2284 3584 
Q 2666 3584 2933 3390 
Q 3200 3197 3328 2828 
z
" transform="scale(0.015625)"/>
       <path id="DejaVuSans-65" d="M 3597 1894 
L 3597 1613 
L 953 1613 
Q 991 1019 1311 708 
Q 1631 397 2203 397 
Q 2534 397 2845 478 
Q 3156 559 3463 722 
L 3463 178 
Q 3153 47 2828 -22 
Q 2503 -91 2169 -91 
Q 1331 -91 842 396 
Q 353 884 353 1716 
Q 353 2575 817 3079 
Q 1281 3584 2069 3584 
Q 2775 3584 3186 3129 
Q 3597 2675 3597 1894 
z
M 3022 2063 
Q 3016 2534 2758 2815 
Q 2500 3097 2075 3097 
Q 1594 3097 1305 2825 
Q 1016 2553 972 2059 
L 3022 2063 
z
" transform="scale(0.015625)"/>
      </defs>
      <use xlink:href="#DejaVuSans-54"/>
      <use xlink:href="#DejaVuSans-69" transform="translate(57.958984 0)"/>
      <use xlink:href="#DejaVuSans-6d" transform="translate(85.742188 0)"/>
      <use xlink:href="#DejaVuSans-65" transform="translate(183.154297 0)"/>
     </g>
    </g>
   </g>
   <g id="matplotlib.axis_2">
    <g id="ytick_1">
     <g id="line2d_11">
      <defs>
       <path id="mf0c7b60c9a" d="M 0 0 
L -3.5 0 
" style="stroke: #000000; stroke-width: 0.8"/>
      </defs>
      <g>
       <use xlink:href="#mf0c7b60c9a" x="49.1375" y="274.93149" style="stroke: #000000; stroke-width: 0.8"/>
      </g>
     </g>
     <g id="text_7">
      <!-- m1 -->
      <g transform="translate(22.81375 279.490553) scale(0.12 -0.12)">
       <use xlink:href="#DejaVuSans-6d"/>
       <use xlink:href="#DejaVuSans-31" transform="translate(97.412109 0)"/>
      </g>
     </g>
    </g>
    <g id="ytick_2">
     <g id="line2d_12">
      <g>
       <use xlink:href="#mf0c7b60c9a" x="49.1375" y="230.102144" style="stroke: #000000; stroke-width: 0.8"/>
      </g>
     </g>
     <g id="text_8">
      <!-- m2 -->
      <g transform="translate(22.81375 234.661207) scale(0.12 -0.12)">
       <use xlink:href="#DejaVuSans-6d"/>
       <use xlink:href="#DejaVuSans-32" transform="translate(97.412109 0)"/>
      </g>
     </g>
    </g>
    <g id="ytick_3">
     <g id="line2d_13">
      <g>
       <use xlink:href="#mf0c7b60c9a" x="49.1375" y="185.272798" style="stroke: #000000; stroke-width: 0.8"/>
      </g>
     </g>
     <g id="text_9">
      <!-- m3 -->
      <g transform="translate(22.81375 189.831861) scale(0.12 -0.12)">
       <defs>
        <path id="DejaVuSans-33" d="M 2597 2516 
Q 3050 2419 3304 2112 
Q 3559 1806 3559 1356 
Q 3559 666 3084 287 
Q 2609 -91 1734 -91 
Q 1441 -91 1130 -33 
Q 819 25 488 141 
L 488 750 
Q 750 597 1062 519 
Q 1375 441 1716 441 
Q 2309 441 2620 675 
Q 2931 909 2931 1356 
Q 2931 1769 2642 2001 
Q 2353 2234 1838 2234 
L 1294 2234 
L 1294 2753 
L 1863 2753 
Q 2328 2753 2575 2939 
Q 2822 3125 2822 3475 
Q 2822 3834 2567 4026 
Q 2313 4219 1838 4219 
Q 1578 4219 1281 4162 
Q 984 4106 628 3988 
L 628 4550 
Q 988 4650 1302 4700 
Q 1616 4750 1894 4750 
Q 2613 4750 3031 4423 
Q 3450 4097 3450 3541 
Q 3450 3153 3228 2886 
Q 3006 2619 2597 2516 
z
" transform="scale(0.015625)"/>
       </defs>
       <use xlink:href="#DejaVuSans-6d"/>
       <use xlink:href="#DejaVuSans-33" transform="translate(97.412109 0)"/>
      </g>
     </g>
    </g>
    <g id="ytick_4">
     <g id="line2d_14">
      <g>
       <use xlink:href="#mf0c7b60c9a" x="49.1375" y="140.443452" style="stroke: #000000; stroke-width: 0.8"/>
      </g>
     </g>
     <g id="text_10">
      <!-- m4 -->
      <g transform="translate(22.81375 145.002514) scale(0.12 -0.12)">
       <defs>
        <path id="DejaVuSans-34" d="M 2419 4116 
L 825 1625 
L 2419 1625 
L 2419 4116 
z
M 2253 4666 
L 3047 4666 
L 3047 1625 
L 3713 1625 
L 3713 1100 
L 3047 1100 
L 3047 0 
L 2419 0 
L 2419 1100 
L 313 1100 
L 313 1709 
L 2253 4666 
z
" transform="scale(0.015625)"/>
       </defs>
       <use xlink:href="#DejaVuSans-6d"/>
       <use xlink:href="#DejaVuSans-34" transform="translate(97.412109 0)"/>
      </g>
     </g>
    </g>
    <g id="ytick_5">
     <g id="line2d_15">
      <g>
       <use xlink:href="#mf0c7b60c9a" x="49.1375" y="95.614106" style="stroke: #000000; stroke-width: 0.8"/>
      </g>
     </g>
     <g id="text_11">
      <!-- m5 -->
      <g transform="translate(22.81375 100.173168) scale(0.12 -0.12)">
       <use xlink:href="#DejaVuSans-6d"/>
       <use xlink:href="#DejaVuSans-35" transform="translate(97.412109 0)"/>
      </g>
     </g>
    </g>
    <g id="ytick_6">
     <g id="line2d_16">
      <g>
       <use xlink:href="#mf0c7b60c9a" x="49.1375" y="50.78476" style="stroke: #000000; stroke-width: 0.8"/>
      </g>
     </g>
     <g id="text_12">
      <!-- m6 -->
      <g transform="translate(22.81375 55.343822) scale(0.12 -0.12)">
       <defs>
        <path id="DejaVuSans-36" d="M 2113 2584 
Q 1688 2584 1439 2293 
Q 1191 2003 1191 1497 
Q 1191 994 1439 701 
Q 1688 409 2113 409 
Q 2538 409 2786 701 
Q 3034 994 3034 1497 
Q 3034 2003 2786 2293 
Q 2538 2584 2113 2584 
z
M 3366 4563 
L 3366 3988 
Q 3128 4100 2886 4159 
Q 2644 4219 2406 4219 
Q 1781 4219 1451 3797 
Q 1122 3375 1075 2522 
Q 1259 2794 1537 2939 
Q 1816 3084 2150 3084 
Q 2853 3084 3261 2657 
Q 3669 2231 3669 1497 
Q 3669 778 3244 343 
Q 2819 -91 2113 -91 
Q 1303 -91 875 529 
Q 447 1150 447 2328 
Q 447 3434 972 4092 
Q 1497 4750 2381 4750 
Q 2619 4750 2861 4703 
Q 3103 4656 3366 4563 
z
" transform="scale(0.015625)"/>
       </defs>
       <use xlink:href="#DejaVuSans-6d"/>
       <use xlink:href="#DejaVuSans-36" transform="translate(97.412109 0)"/>
      </g>
     </g>
    </g>
    <g id="text_13">
     <!-- Machine -->
     <g transform="translate(16.318125 187.974688) rotate(-90) scale(0.12 -0.12)">
      <defs>
       <path id="DejaVuSans-4d" d="M 628 4666 
L 1569 4666 
L 2759 1491 
L 3956 4666 
L 4897 4666 
L 4897 0 
L 4281 0 
L 4281 4097 
L 3078 897 
L 2444 897 
L 1241 4097 
L 1241 0 
L 628 0 
L 628 4666 
z
" transform="scale(0.015625)"/>
       <path id="DejaVuSans-61" d="M 2194 1759 
Q 1497 1759 1228 1600 
Q 959 1441 959 1056 
Q 959 750 1161 570 
Q 1363 391 1709 391 
Q 2188 391 2477 730 
Q 2766 1069 2766 1631 
L 2766 1759 
L 2194 1759 
z
M 3341 1997 
L 3341 0 
L 2766 0 
L 2766 531 
Q 2569 213 2275 61 
Q 1981 -91 1556 -91 
Q 1019 -91 701 211 
Q 384 513 384 1019 
Q 384 1609 779 1909 
Q 1175 2209 1959 2209 
L 2766 2209 
L 2766 2266 
Q 2766 2663 2505 2880 
Q 2244 3097 1772 3097 
Q 1472 3097 1187 3025 
Q 903 2953 641 2809 
L 641 3341 
Q 956 3463 1253 3523 
Q 1550 3584 1831 3584 
Q 2591 3584 2966 3190 
Q 3341 2797 3341 1997 
z
" transform="scale(0.015625)"/>
       <path id="DejaVuSans-63" d="M 3122 3366 
L 3122 2828 
Q 2878 2963 2633 3030 
Q 2388 3097 2138 3097 
Q 1578 3097 1268 2742 
Q 959 2388 959 1747 
Q 959 1106 1268 751 
Q 1578 397 2138 397 
Q 2388 397 2633 464 
Q 2878 531 3122 666 
L 3122 134 
Q 2881 22 2623 -34 
Q 2366 -91 2075 -91 
Q 1284 -91 818 406 
Q 353 903 353 1747 
Q 353 2603 823 3093 
Q 1294 3584 2113 3584 
Q 2378 3584 2631 3529 
Q 2884 3475 3122 3366 
z
" transform="scale(0.015625)"/>
       <path id="DejaVuSans-68" d="M 3513 2113 
L 3513 0 
L 2938 0 
L 2938 2094 
Q 2938 2591 2744 2837 
Q 2550 3084 2163 3084 
Q 1697 3084 1428 2787 
Q 1159 2491 1159 1978 
L 1159 0 
L 581 0 
L 581 4863 
L 1159 4863 
L 1159 2956 
Q 1366 3272 1645 3428 
Q 1925 3584 2291 3584 
Q 2894 3584 3203 3211 
Q 3513 2838 3513 2113 
z
" transform="scale(0.015625)"/>
       <path id="DejaVuSans-6e" d="M 3513 2113 
L 3513 0 
L 2938 0 
L 2938 2094 
Q 2938 2591 2744 2837 
Q 2550 3084 2163 3084 
Q 1697 3084 1428 2787 
Q 1159 2491 1159 1978 
L 1159 0 
L 581 0 
L 581 3500 
L 1159 3500 
L 1159 2956 
Q 1366 3272 1645 3428 
Q 1925 3584 2291 3584 
Q 2894 3584 3203 3211 
Q 3513 2838 3513 2113 
z
" transform="scale(0.015625)"/>
      </defs>
      <use xlink:href="#DejaVuSans-4d"/>
      <use xlink:href="#DejaVuSans-61" transform="translate(86.279297 0)"/>
      <use xlink:href="#DejaVuSans-63" transform="translate(147.558594 0)"/>
      <use xlink:href="#DejaVuSans-68" transform="translate(202.539062 0)"/>
      <use xlink:href="#DejaVuSans-69" transform="translate(265.917969 0)"/>
      <use xlink:href="#DejaVuSans-6e" transform="translate(293.701172 0)"/>
      <use xlink:href="#DejaVuSans-65" transform="translate(357.080078 0)"/>
     </g>
    </g>
   </g>
   <g id="patch_3">
    <path d="M 49.1375 303.398125 
L 49.1375 22.318125 
" style="fill: none; stroke: #000000; stroke-width: 0.8; stroke-linejoin: miter; stroke-linecap: square"/>
   </g>
   <g id="patch_4">
    <path d="M 987.9075 303.398125 
L 987.9075 22.318125 
" style="fill: none; stroke: #000000; stroke-width: 0.8; stroke-linejoin: miter; stroke-linecap: square"/>
   </g>
   <g id="patch_5">
    <path d="M 49.1375 303.398125 
L 987.9075 303.398125 
" style="fill: none; stroke: #000000; stroke-width: 0.8; stroke-linejoin: miter; stroke-linecap: square"/>
   </g>
   <g id="patch_6">
    <path d="M 49.1375 22.318125 
L 987.9075 22.318125 
" style="fill: none; stroke: #000000; stroke-width: 0.8; stroke-linejoin: miter; stroke-linecap: square"/>
   </g>
   <g id="text_14">
    <!-- T2 -->
    <g transform="translate(105.997021 52.716322) scale(0.07 -0.07)">
     <use xlink:href="#DejaVuSans-54"/>
     <use xlink:href="#DejaVuSans-32" transform="translate(61.083984 0)"/>
    </g>
   </g>
   <g id="text_15">
    <!-- T1 -->
    <g transform="translate(113.418128 187.204361) scale(0.07 -0.07)">
     <use xlink:href="#DejaVuSans-54"/>
     <use xlink:href="#DejaVuSans-31" transform="translate(61.083984 0)"/>
    </g>
   </g>
   <g id="text_16">
    <!-- T3 -->
    <g transform="translate(126.405065 52.716322) scale(0.07 -0.07)">
     <use xlink:href="#DejaVuSans-54"/>
     <use xlink:href="#DejaVuSans-33" transform="translate(61.083984 0)"/>
    </g>
   </g>
   <g id="text_17">
    <!-- T1 -->
    <g transform="translate(131.970895 187.204361) scale(0.07 -0.07)">
     <use xlink:href="#DejaVuSans-54"/>
     <use xlink:href="#DejaVuSans-31" transform="translate(61.083984 0)"/>
    </g>
   </g>
   <g id="text_18">
    <!-- T2 -->
    <g transform="translate(146.813108 187.204361) scale(0.07 -0.07)">
     <use xlink:href="#DejaVuSans-54"/>
     <use xlink:href="#DejaVuSans-32" transform="translate(61.083984 0)"/>
    </g>
   </g>
   <g id="text_19">
    <!-- T2 -->
    <g transform="translate(163.510598 187.204361) scale(0.07 -0.07)">
     <use xlink:href="#DejaVuSans-54"/>
     <use xlink:href="#DejaVuSans-32" transform="translate(61.083984 0)"/>
    </g>
   </g>
   <g id="text_20">
    <!-- T3 -->
    <g transform="translate(180.208088 187.204361) scale(0.07 -0.07)">
     <use xlink:href="#DejaVuSans-54"/>
     <use xlink:href="#DejaVuSans-33" transform="translate(61.083984 0)"/>
    </g>
   </g>
   <g id="text_21">
    <!-- T3 -->
    <g transform="translate(196.905578 187.204361) scale(0.07 -0.07)">
     <use xlink:href="#DejaVuSans-54"/>
     <use xlink:href="#DejaVuSans-33" transform="translate(61.083984 0)"/>
    </g>
   </g>
   <g id="text_22">
    <!-- T4 -->
    <g transform="translate(217.313622 232.033707) scale(0.07 -0.07)">
     <use xlink:href="#DejaVuSans-54"/>
     <use xlink:href="#DejaVuSans-34" transform="translate(61.083984 0)"/>
    </g>
   </g>
   <g id="text_23">
    <!-- T1 -->
    <g transform="translate(267.406092 187.204361) scale(0.07 -0.07)">
     <use xlink:href="#DejaVuSans-54"/>
     <use xlink:href="#DejaVuSans-31" transform="translate(61.083984 0)"/>
    </g>
   </g>
   <g id="text_24">
    <!-- T1 -->
    <g transform="translate(343.472436 232.033707) scale(0.07 -0.07)">
     <use xlink:href="#DejaVuSans-54"/>
     <use xlink:href="#DejaVuSans-31" transform="translate(61.083984 0)"/>
    </g>
   </g>
   <g id="text_25">
    <!-- T2 -->
    <g transform="translate(356.459373 97.545668) scale(0.07 -0.07)">
     <use xlink:href="#DejaVuSans-54"/>
     <use xlink:href="#DejaVuSans-32" transform="translate(61.083984 0)"/>
    </g>
   </g>
   <g id="text_26">
    <!-- T3 -->
    <g transform="translate(419.53878 142.375014) scale(0.07 -0.07)">
     <use xlink:href="#DejaVuSans-54"/>
     <use xlink:href="#DejaVuSans-33" transform="translate(61.083984 0)"/>
    </g>
   </g>
   <g id="text_27">
    <!-- T1 -->
    <g transform="translate(443.657377 232.033707) scale(0.07 -0.07)">
     <use xlink:href="#DejaVuSans-54"/>
     <use xlink:href="#DejaVuSans-31" transform="translate(61.083984 0)"/>
    </g>
   </g>
   <g id="text_28">
    <!-- T2 -->
    <g transform="translate(465.920697 232.033707) scale(0.07 -0.07)">
     <use xlink:href="#DejaVuSans-54"/>
     <use xlink:href="#DejaVuSans-32" transform="translate(61.083984 0)"/>
    </g>
   </g>
   <g id="text_29">
    <!-- T2 -->
    <g transform="translate(488.184017 232.033707) scale(0.07 -0.07)">
     <use xlink:href="#DejaVuSans-54"/>
     <use xlink:href="#DejaVuSans-32" transform="translate(61.083984 0)"/>
    </g>
   </g>
   <g id="text_30">
    <!-- T4 -->
    <g transform="translate(554.973978 232.033707) scale(0.07 -0.07)">
     <use xlink:href="#DejaVuSans-54"/>
     <use xlink:href="#DejaVuSans-34" transform="translate(61.083984 0)"/>
    </g>
   </g>
   <g id="text_31">
    <!-- T3 -->
    <g transform="translate(577.237298 232.033707) scale(0.07 -0.07)">
     <use xlink:href="#DejaVuSans-54"/>
     <use xlink:href="#DejaVuSans-33" transform="translate(61.083984 0)"/>
    </g>
   </g>
   <g id="text_32">
    <!-- T1 -->
    <g transform="translate(599.500618 232.033707) scale(0.07 -0.07)">
     <use xlink:href="#DejaVuSans-54"/>
     <use xlink:href="#DejaVuSans-31" transform="translate(61.083984 0)"/>
    </g>
   </g>
   <g id="text_33">
    <!-- T4 -->
    <g transform="translate(632.895598 187.204361) scale(0.07 -0.07)">
     <use xlink:href="#DejaVuSans-54"/>
     <use xlink:href="#DejaVuSans-34" transform="translate(61.083984 0)"/>
    </g>
   </g>
   <g id="text_34">
    <!-- T1 -->
    <g transform="translate(647.737812 187.204361) scale(0.07 -0.07)">
     <use xlink:href="#DejaVuSans-54"/>
     <use xlink:href="#DejaVuSans-31" transform="translate(61.083984 0)"/>
    </g>
   </g>
   <g id="text_35">
    <!-- T2 -->
    <g transform="translate(662.580025 187.204361) scale(0.07 -0.07)">
     <use xlink:href="#DejaVuSans-54"/>
     <use xlink:href="#DejaVuSans-32" transform="translate(61.083984 0)"/>
    </g>
   </g>
   <g id="text_36">
    <!-- T5 -->
    <g transform="translate(662.580025 232.033707) scale(0.07 -0.07)">
     <use xlink:href="#DejaVuSans-54"/>
     <use xlink:href="#DejaVuSans-35" transform="translate(61.083984 0)"/>
    </g>
   </g>
   <g id="text_37">
    <!-- T5 -->
    <g transform="translate(684.843345 232.033707) scale(0.07 -0.07)">
     <use xlink:href="#DejaVuSans-54"/>
     <use xlink:href="#DejaVuSans-35" transform="translate(61.083984 0)"/>
    </g>
   </g>
   <g id="text_38">
    <!-- T6 -->
    <g transform="translate(707.106665 232.033707) scale(0.07 -0.07)">
     <use xlink:href="#DejaVuSans-54"/>
     <use xlink:href="#DejaVuSans-36" transform="translate(61.083984 0)"/>
    </g>
   </g>
   <g id="text_39">
    <!-- T3 -->
    <g transform="translate(729.369985 232.033707) scale(0.07 -0.07)">
     <use xlink:href="#DejaVuSans-54"/>
     <use xlink:href="#DejaVuSans-33" transform="translate(61.083984 0)"/>
    </g>
   </g>
   <g id="text_40">
    <!-- T4 -->
    <g transform="translate(751.633306 232.033707) scale(0.07 -0.07)">
     <use xlink:href="#DejaVuSans-54"/>
     <use xlink:href="#DejaVuSans-34" transform="translate(61.083984 0)"/>
    </g>
   </g>
   <g id="text_41">
    <!-- T3 -->
    <g transform="translate(773.896626 232.033707) scale(0.07 -0.07)">
     <use xlink:href="#DejaVuSans-54"/>
     <use xlink:href="#DejaVuSans-33" transform="translate(61.083984 0)"/>
    </g>
   </g>
   <g id="text_42">
    <!-- T4 -->
    <g transform="translate(796.159946 232.033707) scale(0.07 -0.07)">
     <use xlink:href="#DejaVuSans-54"/>
     <use xlink:href="#DejaVuSans-34" transform="translate(61.083984 0)"/>
    </g>
   </g>
   <g id="text_43">
    <!-- T3 -->
    <g transform="translate(818.423266 232.033707) scale(0.07 -0.07)">
     <use xlink:href="#DejaVuSans-54"/>
     <use xlink:href="#DejaVuSans-33" transform="translate(61.083984 0)"/>
    </g>
   </g>
   <g id="text_44">
    <!-- T6 -->
    <g transform="translate(838.83131 276.863053) scale(0.07 -0.07)">
     <use xlink:href="#DejaVuSans-54"/>
     <use xlink:href="#DejaVuSans-36" transform="translate(61.083984 0)"/>
    </g>
   </g>
   <g id="text_45">
    <!-- T4 -->
    <g transform="translate(840.686586 232.033707) scale(0.07 -0.07)">
     <use xlink:href="#DejaVuSans-54"/>
     <use xlink:href="#DejaVuSans-34" transform="translate(61.083984 0)"/>
    </g>
   </g>
   <g id="text_46">
    <!-- T4 -->
    <g transform="translate(862.949906 232.033707) scale(0.07 -0.07)">
     <use xlink:href="#DejaVuSans-54"/>
     <use xlink:href="#DejaVuSans-34" transform="translate(61.083984 0)"/>
    </g>
   </g>
   <g id="text_47">
    <!-- T5 -->
    <g transform="translate(866.66046 142.375014) scale(0.07 -0.07)">
     <use xlink:href="#DejaVuSans-54"/>
     <use xlink:href="#DejaVuSans-35" transform="translate(61.083984 0)"/>
    </g>
   </g>
   <g id="text_48">
    <!-- T5 -->
    <g transform="translate(885.213227 232.033707) scale(0.07 -0.07)">
     <use xlink:href="#DejaVuSans-54"/>
     <use xlink:href="#DejaVuSans-35" transform="translate(61.083984 0)"/>
    </g>
   </g>
   <g id="text_49">
    <!-- T6 -->
    <g transform="translate(892.634333 187.204361) scale(0.07 -0.07)">
     <use xlink:href="#DejaVuSans-54"/>
     <use xlink:href="#DejaVuSans-36" transform="translate(61.083984 0)"/>
    </g>
   </g>
   <g id="text_50">
    <!-- T5 -->
    <g transform="translate(907.476547 232.033707) scale(0.07 -0.07)">
     <use xlink:href="#DejaVuSans-54"/>
     <use xlink:href="#DejaVuSans-35" transform="translate(61.083984 0)"/>
    </g>
   </g>
   <g id="text_51">
    <!-- T4 -->
    <g transform="translate(913.042377 187.204361) scale(0.07 -0.07)">
     <use xlink:href="#DejaVuSans-54"/>
     <use xlink:href="#DejaVuSans-34" transform="translate(61.083984 0)"/>
    </g>
   </g>
   <g id="text_52">
    <!-- T5 -->
    <g transform="translate(929.739867 187.204361) scale(0.07 -0.07)">
     <use xlink:href="#DejaVuSans-54"/>
     <use xlink:href="#DejaVuSans-35" transform="translate(61.083984 0)"/>
    </g>
   </g>
   <g id="text_53">
    <!-- T6 -->
    <g transform="translate(929.739867 232.033707) scale(0.07 -0.07)">
     <use xlink:href="#DejaVuSans-54"/>
     <use xlink:href="#DejaVuSans-36" transform="translate(61.083984 0)"/>
    </g>
   </g>
   <g id="text_54">
    <!-- Best Schedule Plan (CP-SAT) -->
    <g transform="translate(433.434062 16.318125) scale(0.12 -0.12)">
     <defs>
      <path id="DejaVuSans-42" d="M 1259 2228 
L 1259 519 
L 2272 519 
Q 2781 519 3026 730 
Q 3272 941 3272 1375 
Q 3272 1813 3026 2020 
Q 2781 2228 2272 2228 
L 1259 2228 
z
M 1259 4147 
L 1259 2741 
L 2194 2741 
Q 2656 2741 2882 2914 
Q 3109 3088 3109 3444 
Q 3109 3797 2882 3972 
Q 2656 4147 2194 4147 
L 1259 4147 
z
M 628 4666 
L 2241 4666 
Q 2963 4666 3353 4366 
Q 3744 4066 3744 3513 
Q 3744 3084 3544 2831 
Q 3344 2578 2956 2516 
Q 3422 2416 3680 2098 
Q 3938 1781 3938 1306 
Q 3938 681 3513 340 
Q 3088 0 2303 0 
L 628 0 
L 628 4666 
z
" transform="scale(0.015625)"/>
      <path id="DejaVuSans-73" d="M 2834 3397 
L 2834 2853 
Q 2591 2978 2328 3040 
Q 2066 3103 1784 3103 
Q 1356 3103 1142 2972 
Q 928 2841 928 2578 
Q 928 2378 1081 2264 
Q 1234 2150 1697 2047 
L 1894 2003 
Q 2506 1872 2764 1633 
Q 3022 1394 3022 966 
Q 3022 478 2636 193 
Q 2250 -91 1575 -91 
Q 1294 -91 989 -36 
Q 684 19 347 128 
L 347 722 
Q 666 556 975 473 
Q 1284 391 1588 391 
Q 1994 391 2212 530 
Q 2431 669 2431 922 
Q 2431 1156 2273 1281 
Q 2116 1406 1581 1522 
L 1381 1569 
Q 847 1681 609 1914 
Q 372 2147 372 2553 
Q 372 3047 722 3315 
Q 1072 3584 1716 3584 
Q 2034 3584 2315 3537 
Q 2597 3491 2834 3397 
z
" transform="scale(0.015625)"/>
      <path id="DejaVuSans-74" d="M 1172 4494 
L 1172 3500 
L 2356 3500 
L 2356 3053 
L 1172 3053 
L 1172 1153 
Q 1172 725 1289 603 
Q 1406 481 1766 481 
L 2356 481 
L 2356 0 
L 1766 0 
Q 1100 0 847 248 
Q 594 497 594 1153 
L 594 3053 
L 172 3053 
L 172 3500 
L 594 3500 
L 594 4494 
L 1172 4494 
z
" transform="scale(0.015625)"/>
      <path id="DejaVuSans-20" transform="scale(0.015625)"/>
      <path id="DejaVuSans-53" d="M 3425 4513 
L 3425 3897 
Q 3066 4069 2747 4153 
Q 2428 4238 2131 4238 
Q 1616 4238 1336 4038 
Q 1056 3838 1056 3469 
Q 1056 3159 1242 3001 
Q 1428 2844 1947 2747 
L 2328 2669 
Q 3034 2534 3370 2195 
Q 3706 1856 3706 1288 
Q 3706 609 3251 259 
Q 2797 -91 1919 -91 
Q 1588 -91 1214 -16 
Q 841 59 441 206 
L 441 856 
Q 825 641 1194 531 
Q 1563 422 1919 422 
Q 2459 422 2753 634 
Q 3047 847 3047 1241 
Q 3047 1584 2836 1778 
Q 2625 1972 2144 2069 
L 1759 2144 
Q 1053 2284 737 2584 
Q 422 2884 422 3419 
Q 422 4038 858 4394 
Q 1294 4750 2059 4750 
Q 2388 4750 2728 4690 
Q 3069 4631 3425 4513 
z
" transform="scale(0.015625)"/>
      <path id="DejaVuSans-64" d="M 2906 2969 
L 2906 4863 
L 3481 4863 
L 3481 0 
L 2906 0 
L 2906 525 
Q 2725 213 2448 61 
Q 2172 -91 1784 -91 
Q 1150 -91 751 415 
Q 353 922 353 1747 
Q 353 2572 751 3078 
Q 1150 3584 1784 3584 
Q 2172 3584 2448 3432 
Q 2725 3281 2906 2969 
z
M 947 1747 
Q 947 1113 1208 752 
Q 1469 391 1925 391 
Q 2381 391 2643 752 
Q 2906 1113 2906 1747 
Q 2906 2381 2643 2742 
Q 2381 3103 1925 3103 
Q 1469 3103 1208 2742 
Q 947 2381 947 1747 
z
" transform="scale(0.015625)"/>
      <path id="DejaVuSans-75" d="M 544 1381 
L 544 3500 
L 1119 3500 
L 1119 1403 
Q 1119 906 1312 657 
Q 1506 409 1894 409 
Q 2359 409 2629 706 
Q 2900 1003 2900 1516 
L 2900 3500 
L 3475 3500 
L 3475 0 
L 2900 0 
L 2900 538 
Q 2691 219 2414 64 
Q 2138 -91 1772 -91 
Q 1169 -91 856 284 
Q 544 659 544 1381 
z
M 1991 3584 
L 1991 3584 
z
" transform="scale(0.015625)"/>
      <path id="DejaVuSans-6c" d="M 603 4863 
L 1178 4863 
L 1178 0 
L 603 0 
L 603 4863 
z
" transform="scale(0.015625)"/>
      <path id="DejaVuSans-50" d="M 1259 4147 
L 1259 2394 
L 2053 2394 
Q 2494 2394 2734 2622 
Q 2975 2850 2975 3272 
Q 2975 3691 2734 3919 
Q 2494 4147 2053 4147 
L 1259 4147 
z
M 628 4666 
L 2053 4666 
Q 2838 4666 3239 4311 
Q 3641 3956 3641 3272 
Q 3641 2581 3239 2228 
Q 2838 1875 2053 1875 
L 1259 1875 
L 1259 0 
L 628 0 
L 628 4666 
z
" transform="scale(0.015625)"/>
      <path id="DejaVuSans-28" d="M 1984 4856 
Q 1566 4138 1362 3434 
Q 1159 2731 1159 2009 
Q 1159 1288 1364 580 
Q 1569 -128 1984 -844 
L 1484 -844 
Q 1016 -109 783 600 
Q 550 1309 550 2009 
Q 550 2706 781 3412 
Q 1013 4119 1484 4856 
L 1984 4856 
z
" transform="scale(0.015625)"/>
      <path id="DejaVuSans-43" d="M 4122 4306 
L 4122 3641 
Q 3803 3938 3442 4084 
Q 3081 4231 2675 4231 
Q 1875 4231 1450 3742 
Q 1025 3253 1025 2328 
Q 1025 1406 1450 917 
Q 1875 428 2675 428 
Q 3081 428 3442 575 
Q 3803 722 4122 1019 
L 4122 359 
Q 3791 134 3420 21 
Q 3050 -91 2638 -91 
Q 1578 -91 968 557 
Q 359 1206 359 2328 
Q 359 3453 968 4101 
Q 1578 4750 2638 4750 
Q 3056 4750 3426 4639 
Q 3797 4528 4122 4306 
z
" transform="scale(0.015625)"/>
      <path id="DejaVuSans-2d" d="M 313 2009 
L 1997 2009 
L 1997 1497 
L 313 1497 
L 313 2009 
z
" transform="scale(0.015625)"/>
      <path id="DejaVuSans-41" d="M 2188 4044 
L 1331 1722 
L 3047 1722 
L 2188 4044 
z
M 1831 4666 
L 2547 4666 
L 4325 0 
L 3669 0 
L 3244 1197 
L 1141 1197 
L 716 0 
L 50 0 
L 1831 4666 
z
" transform="scale(0.015625)"/>
      <path id="DejaVuSans-29" d="M 513 4856 
L 1013 4856 
Q 1481 4119 1714 3412 
Q 1947 2706 1947 2009 
Q 1947 1309 1714 600 
Q 1481 -109 1013 -844 
L 513 -844 
Q 928 -128 1133 580 
Q 1338 1288 1338 2009 
Q 1338 2731 1133 3434 
Q 928 4138 513 4856 
z
" transform="scale(0.015625)"/>
     </defs>
     <use xlink:href="#DejaVuSans-42"/>
     <use xlink:href="#DejaVuSans-65" transform="translate(68.603516 0)"/>
     <use xlink:href="#DejaVuSans-73" transform="translate(130.126953 0)"/>
     <use xlink:href="#DejaVuSans-74" transform="translate(182.226562 0)"/>
     <use xlink:href="#DejaVuSans-20" transform="translate(221.435547 0)"/>
     <use xlink:href="#DejaVuSans-53" transform="translate(253.222656 0)"/>
     <use xlink:href="#DejaVuSans-63" transform="translate(316.699219 0)"/>
     <use xlink:href="#DejaVuSans-68" transform="translate(371.679688 0)"/>
     <use xlink:href="#DejaVuSans-65" transform="translate(435.058594 0)"/>
     <use xlink:href="#DejaVuSans-64" transform="translate(496.582031 0)"/>
     <use xlink:href="#DejaVuSans-75" transform="translate(560.058594 0)"/>
     <use xlink:href="#DejaVuSans-6c" transform="translate(623.4375 0)"/>
     <use xlink:href="#DejaVuSans-65" transform="translate(651.220703 0)"/>
     <use xlink:href="#DejaVuSans-20" transform="translate(712.744141 0)"/>
     <use xlink:href="#DejaVuSans-50" transform="translate(744.53125 0)"/>
     <use xlink:href="#DejaVuSans-6c" transform="translate(804.833984 0)"/>
     <use xlink:href="#DejaVuSans-61" transform="translate(832.617188 0)"/>
     <use xlink:href="#DejaVuSans-6e" transform="translate(893.896484 0)"/>
     <use xlink:href="#DejaVuSans-20" transform="translate(957.275391 0)"/>
     <use xlink:href="#DejaVuSans-28" transform="translate(989.0625 0)"/>
     <use xlink:href="#DejaVuSans-43" transform="translate(1028.076172 0)"/>
     <use xlink:href="#DejaVuSans-50" transform="translate(1097.900391 0)"/>
     <use xlink:href="#DejaVuSans-2d" transform="translate(1155.953125 0)"/>
     <use xlink:href="#DejaVuSans-53" transform="translate(1192.037109 0)"/>
     <use xlink:href="#DejaVuSans-41" transform="translate(1257.388672 0)"/>
     <use xlink:href="#DejaVuSans-54" transform="translate(1318.046875 0)"/>
     <use xlink:href="#DejaVuSans-29" transform="translate(1379.130859 0)"/>
    </g>
   </g>
  </g>
 </g>
 <defs>
  <clipPath id="p3f51bbcbc0">
   <rect x="49.1375" y="22.318125" width="938.77" height="281.08"/>
  </clipPath>
 </defs>
</svg>
